<?xml version="1.0" encoding="UTF-8"?>
<!-- Created with Inkscape (http://www.inkscape.org/) -->
<svg width="210.35" height="45" version="1.1" viewBox="0 0 55.654 11.906" xmlns="http://www.w3.org/2000/svg">
 <g transform="translate(-119.81 -172.1)">
  <g transform="matrix(.26458 0 0 .26458 119.81 171.31)" fill="#fff">
   <g transform="matrix(1.5042 0 0 1.5042 -618.3 -1097.2)" style="shape-inside:url(#rect3709);white-space:pre" aria-label="RFDb">
    <path d="m450.07 760.93v-28.4h13.04q2.08 0 3.84 0.84t3.04 2.28q1.28 1.4 1.96 3.16 0.72 1.76 0.72 3.56 0 1.64-0.48 3.16t-1.4 2.8q-0.92 1.24-2.2 2.16l6 10.44h-8.56l-5-8.72h-3.16v8.72zm7.8-15.52h4.92q0.48 0 0.92-0.36t0.72-1.04q0.32-0.68 0.32-1.64 0-1-0.36-1.64-0.32-0.68-0.84-1.04-0.48-0.36-0.96-0.36h-4.72z" style="font-variation-settings:'wght' 900"/>
    <path d="m477.07 760.93v-28.4h19.48v6.8h-11.68v4.72h9.52v6.32h-9.52v10.56z" style="font-variation-settings:'wght' 900"/>
    <path d="m499.59 760.93v-28.4h10.92q4.72 0 7.88 1.92 3.2 1.88 4.8 5.12 1.64 3.2 1.64 7.12 0 4.32-1.8 7.52-1.76 3.2-5 4.96-3.2 1.76-7.52 1.76zm17.32-14.24q0-2.2-0.76-3.84-0.76-1.68-2.2-2.6t-3.44-0.92h-3.12v14.8h3.12q2.04 0 3.44-0.96 1.44-0.96 2.2-2.64 0.76-1.72 0.76-3.84z" style="font-variation-settings:'wght' 900"/>
    <path d="m541.11 761.33q-2.36 0-4.08-0.92-1.72-0.96-2.72-2.76v3.28h-6.6v-29.2h7.6v11.28q0.92-1.72 2.6-2.6 1.68-0.92 3.96-0.92 1.92 0 3.56 0.84 1.64 0.8 2.84 2.28 1.24 1.48 1.92 3.52 0.68 2 0.68 4.36 0 2.32-0.76 4.32-0.72 1.96-2.04 3.44-1.28 1.48-3.08 2.28-1.76 0.8-3.88 0.8zm-2.2-6.4q0.92 0 1.68-0.32t1.32-0.88q0.56-0.6 0.84-1.4 0.32-0.8 0.32-1.8 0-1.28-0.52-2.32-0.48-1.08-1.36-1.68-0.84-0.64-1.96-0.64-0.8 0-1.56 0.4t-1.4 1.12q-0.6 0.68-0.96 1.6v3.76q0.36 0.52 0.76 0.96 0.44 0.4 0.88 0.68 0.44 0.24 0.92 0.4 0.52 0.12 1.04 0.12z" style="font-variation-settings:'wght' 900"/>
   </g>
   <path d="m46.535 3h-0.76287v2.319c0 0.76529-0.51491 1.3914-1.1443 1.3914h-3.8143c-0.62939 0-1.1443-0.62614-1.1443-1.3914v-2.319h-30.515v2.319c0 0.76529-0.51492 1.3914-1.1443 1.3914h-3.8143c-0.62936 0-1.1443-0.62614-1.1443-1.3914v-2.319h-0.76286c-1.2683 0-2.2886 1.2407-2.2886 2.7828v38.96c0 1.5422 1.0203 2.7828 2.2886 2.7828h0.76286v-2.3191c0-0.76525 0.51493-1.3914 1.1443-1.3914h3.8143c0.62936 0 1.1443 0.62613 1.1443 1.3914v2.3191h30.515v-2.3191c0-0.76525 0.51491-1.3914 1.1443-1.3914h3.8143c0.62939 0 1.1443 0.62613 1.1443 1.3914v2.3191h0.76287c1.2683 0 2.2886-1.2407 2.2886-2.7828v-38.96c0-1.5422-1.0203-2.7828-2.2886-2.7828zm-37.38 35.713c0 0.76534-0.51492 1.3915-1.1443 1.3915h-3.8143c-0.62936 0-1.1443-0.62613-1.1443-1.3915v-4.638c0-0.76534 0.51493-1.3915 1.1443-1.3915h3.8143c0.62936 0 1.1443 0.62613 1.1443 1.3915zm0-11.131c0 0.76534-0.51492 1.3915-1.1443 1.3915h-3.8143c-0.62936 0-1.1443-0.62613-1.1443-1.3915v-4.6381c0-0.76525 0.51493-1.3914 1.1443-1.3914h3.8143c0.62936 0 1.1443 0.62613 1.1443 1.3914zm0-11.131c0 0.76525-0.51492 1.3914-1.1443 1.3914h-3.8143c-0.62936 0-1.1443-0.62613-1.1443-1.3914v-4.6381c0-0.76534 0.51493-1.3915 1.1443-1.3915h3.8143c0.62936 0 1.1443 0.62613 1.1443 1.3915zm25.937 24.118c0 0.76534-0.51491 1.3915-1.1443 1.3915h-19.072c-0.6293 0-1.1442-0.62613-1.1442-1.3915v-11.131c0-0.76525 0.51491-1.3914 1.1442-1.3914h19.072c0.62939 0 1.1443 0.62613 1.1443 1.3914zm0-19.48c0 0.76534-0.51491 1.3915-1.1443 1.3915h-19.072c-0.6293 0-1.1442-0.62613-1.1442-1.3915v-11.131c0-0.76524 0.51491-1.3914 1.1442-1.3914h19.072c0.62939 0 1.1443 0.62614 1.1443 1.3914zm10.68 17.625c0 0.76534-0.51491 1.3915-1.1443 1.3915h-3.8143c-0.62939 0-1.1443-0.62613-1.1443-1.3915v-4.638c0-0.76534 0.51491-1.3915 1.1443-1.3915h3.8143c0.62939 0 1.1443 0.62613 1.1443 1.3915zm0-11.131c0 0.76534-0.51491 1.3915-1.1443 1.3915h-3.8143c-0.62939 0-1.1443-0.62613-1.1443-1.3915v-4.6381c0-0.76525 0.51491-1.3914 1.1443-1.3914h3.8143c0.62939 0 1.1443 0.62613 1.1443 1.3914zm0-11.131c0 0.76525-0.51491 1.3914-1.1443 1.3914h-3.8143c-0.62939 0-1.1443-0.62613-1.1443-1.3914v-4.6381c0-0.76534 0.51491-1.3915 1.1443-1.3915h3.8143c0.62939 0 1.1443 0.62613 1.1443 1.3915z" stroke-width=".98946"/>
  </g>
 </g>
</svg>
