<?xml version="1.0" encoding="UTF-8"?>
<!-- Created with Inkscape (http://www.inkscape.org/) -->
<svg width="48.823" height="44.526" version="1.1" viewBox="0 0 12.918 11.781" xmlns="http://www.w3.org/2000/svg">
 <g transform="translate(-119.81 -172.1)">
  <g transform="matrix(.26458 0 0 .26458 119.81 171.31)" fill="none">
   <path d="m46.535 3h-0.76287v2.319c0 0.76529-0.51491 1.3914-1.1443 1.3914h-3.8143c-0.62939 0-1.1443-0.62614-1.1443-1.3914v-2.319h-30.515v2.319c0 0.76529-0.51492 1.3914-1.1443 1.3914h-3.8143c-0.62936 0-1.1443-0.62614-1.1443-1.3914v-2.319h-0.76286c-1.2683 0-2.2886 1.2407-2.2886 2.7828v38.96c0 1.5422 1.0203 2.7828 2.2886 2.7828h0.76286v-2.3191c0-0.76525 0.51493-1.3914 1.1443-1.3914h3.8143c0.62936 0 1.1443 0.62613 1.1443 1.3914v2.3191h30.515v-2.3191c0-0.76525 0.51491-1.3914 1.1443-1.3914h3.8143c0.62939 0 1.1443 0.62613 1.1443 1.3914v2.3191h0.76287c1.2683 0 2.2886-1.2407 2.2886-2.7828v-38.96c0-1.5422-1.0203-2.7828-2.2886-2.7828zm-37.38 35.713c0 0.76534-0.51492 1.3915-1.1443 1.3915h-3.8143c-0.62936 0-1.1443-0.62613-1.1443-1.3915v-4.638c0-0.76534 0.51493-1.3915 1.1443-1.3915h3.8143c0.62936 0 1.1443 0.62613 1.1443 1.3915zm0-11.131c0 0.76534-0.51492 1.3915-1.1443 1.3915h-3.8143c-0.62936 0-1.1443-0.62613-1.1443-1.3915v-4.6381c0-0.76525 0.51493-1.3914 1.1443-1.3914h3.8143c0.62936 0 1.1443 0.62613 1.1443 1.3914zm0-11.131c0 0.76525-0.51492 1.3914-1.1443 1.3914h-3.8143c-0.62936 0-1.1443-0.62613-1.1443-1.3914v-4.6381c0-0.76534 0.51493-1.3915 1.1443-1.3915h3.8143c0.62936 0 1.1443 0.62613 1.1443 1.3915zm25.937 24.118c0 0.76534-0.51491 1.3915-1.1443 1.3915h-19.072c-0.6293 0-1.1442-0.62613-1.1442-1.3915v-11.131c0-0.76525 0.51491-1.3914 1.1442-1.3914h19.072c0.62939 0 1.1443 0.62613 1.1443 1.3914zm0-19.48c0 0.76534-0.51491 1.3915-1.1443 1.3915h-19.072c-0.6293 0-1.1442-0.62613-1.1442-1.3915v-11.131c0-0.76524 0.51491-1.3914 1.1442-1.3914h19.072c0.62939 0 1.1443 0.62614 1.1443 1.3914zm10.68 17.625c0 0.76534-0.51491 1.3915-1.1443 1.3915h-3.8143c-0.62939 0-1.1443-0.62613-1.1443-1.3915v-4.638c0-0.76534 0.51491-1.3915 1.1443-1.3915h3.8143c0.62939 0 1.1443 0.62613 1.1443 1.3915zm0-11.131c0 0.76534-0.51491 1.3915-1.1443 1.3915h-3.8143c-0.62939 0-1.1443-0.62613-1.1443-1.3915v-4.6381c0-0.76525 0.51491-1.3914 1.1443-1.3914h3.8143c0.62939 0 1.1443 0.62613 1.1443 1.3914zm0-11.131c0 0.76525-0.51491 1.3914-1.1443 1.3914h-3.8143c-0.62939 0-1.1443-0.62613-1.1443-1.3914v-4.6381c0-0.76534 0.51491-1.3915 1.1443-1.3915h3.8143c0.62939 0 1.1443 0.62613 1.1443 1.3915z" fill="#fff" stroke-width=".98946"/>
  </g>
 </g>
</svg>
